<?xml version="1.0" standalone="no"?>
<!DOCTYPE svg PUBLIC "-//W3C//DTD SVG 20010904//EN"
 "http://www.w3.org/TR/2001/REC-SVG-20010904/DTD/svg10.dtd">
<svg version="1.0" xmlns="http://www.w3.org/2000/svg"
 width="200.000000pt" height="200.000000pt" viewBox="0 0 200.000000 200.000000"
 preserveAspectRatio="xMidYMid meet">

<g transform="translate(0.000000,200.000000) scale(0.100000,-0.100000)"
fill="#000000" stroke="none">
<path d="M0 1000 l0 -1000 1000 0 1000 0 0 1000 0 1000 -1000 0 -1000 0 0
-1000z m911 473 c1 -17 2 -17 6 0 7 27 23 20 24 -10 0 -28 1 -28 11 -5 6 12
15 22 20 22 13 0 9 -23 -7 -47 -9 -13 -11 -24 -6 -28 6 -3 15 4 21 15 6 11 19
20 29 20 23 0 73 -64 70 -88 -5 -29 10 -59 36 -70 15 -7 25 -20 25 -32 0 -16
7 -20 34 -20 31 0 34 -3 39 -36 3 -20 3 -49 0 -65 l-5 -29 -208 0 -208 0 -6
33 c-3 18 -3 48 0 65 l7 32 94 0 c92 0 94 1 91 23 -2 17 -10 22 -33 22 -16 0
-33 -4 -37 -9 -4 -6 -12 -5 -21 2 -7 7 -16 9 -20 6 -3 -3 -15 -3 -27 1 -18 6
-21 12 -16 35 3 16 1 30 -5 32 -10 3 -23 98 -13 98 3 0 14 -5 25 -10 20 -11
23 -5 20 33 -1 9 1 17 5 17 4 0 13 -8 20 -17 12 -17 13 -16 14 5 0 26 19 30
21 5z m286 -134 c-3 -10 0 -20 6 -22 12 -4 -27 -47 -43 -47 -11 0 -24 64 -17
84 9 22 60 8 54 -15z m-347 -355 c0 -3 -5 -15 -12 -27 -10 -20 -7 -19 25 6 39
30 57 29 57 -4 0 -14 -7 -19 -25 -19 -29 0 -30 -8 -10 -57 19 -45 20 -43 -16
-43 -22 0 -32 5 -36 20 -3 11 -9 20 -14 20 -5 0 -9 -9 -9 -20 0 -16 -7 -20
-35 -20 -33 0 -46 12 -26 24 4 3 14 33 21 66 13 59 13 60 46 60 19 0 34 -3 34
-6z m210 -14 c16 -16 18 -25 10 -40 -13 -24 -41 -40 -69 -40 -16 0 -21 -6 -21
-25 0 -22 -4 -25 -36 -25 -27 0 -35 4 -31 14 6 16 28 92 32 116 2 8 4 16 4 18
1 1 21 2 46 2 32 0 51 -6 65 -20z m154 4 c19 -19 20 -29 3 -46 -8 -6 -11 -23
-9 -37 7 -36 -21 -51 -95 -51 -35 0 -63 2 -63 4 0 2 7 16 15 32 8 16 17 48 21
71 l6 43 53 0 c35 0 59 -5 69 -16z m-444 -216 c0 -7 -5 -20 -10 -28 -9 -13
-12 -13 -24 3 -17 22 -32 22 -39 -2 -3 -14 0 -17 15 -13 16 4 19 0 16 -19 -2
-18 -9 -23 -26 -22 -17 2 -22 -2 -22 -22 0 -22 -4 -25 -35 -25 -19 0 -35 2
-35 4 0 2 7 23 15 46 8 23 15 53 15 66 0 23 3 24 65 24 45 0 65 -4 65 -12z
m585 -30 c7 -6 4 -13 -6 -21 -12 -9 -14 -16 -6 -29 18 -27 -9 -48 -60 -48 -46
0 -67 20 -45 42 9 9 17 7 32 -7 11 -10 20 -14 20 -9 0 5 -9 15 -20 22 -27 17
-26 50 3 61 24 10 66 4 82 -11z m-486 -2 c7 -8 9 -25 6 -39 -4 -14 -2 -28 4
-31 10 -6 18 14 25 60 2 16 12 19 55 21 39 2 53 -2 58 -13 9 -25 -14 -41 -37
-26 -18 11 -20 9 -26 -27 l-6 -40 -94 1 c-109 0 -132 13 -95 52 11 12 18 25
15 29 -3 3 -3 10 1 16 9 16 81 13 94 -3z m356 4 c3 -4 2 -29 -1 -54 -6 -42 -9
-46 -35 -46 -17 0 -29 5 -29 13 0 9 -2 9 -9 -1 -5 -8 -21 -12 -37 -10 -30 3
-33 13 -19 57 5 16 4 21 -4 17 -5 -4 -13 -22 -17 -41 -6 -31 -10 -35 -39 -35
l-33 0 14 38 c7 20 13 44 14 53 0 14 14 17 95 17 53 0 98 -4 100 -8z m-669
-179 c-4 -5 -2 -11 3 -13 5 -1 3 -9 -5 -16 -12 -11 -14 -9 -14 13 0 14 5 25
11 25 5 0 8 -4 5 -9z m226 -10 c-5 -3 -12 -13 -15 -21 -3 -9 -6 -4 -6 12 -1
21 3 26 15 21 9 -3 11 -9 6 -12z m99 -11 c-3 -3 -9 -9 -13 -14 -5 -5 -8 3 -8
18 0 22 2 25 14 14 8 -7 11 -15 7 -18z m456 21 c12 11 12 9 2 -15 -12 -25 -14
-26 -20 -9 -4 10 -8 23 -8 28 1 6 3 4 6 -3 4 -10 8 -10 20 -1z m-713 -12 c-3
-6 0 -15 7 -20 11 -7 10 -9 -3 -9 -18 0 -24 20 -11 33 10 11 15 8 7 -4z m56 0
c0 -5 -4 -7 -10 -4 -5 3 -10 -2 -10 -11 0 -10 -3 -15 -6 -11 -9 9 3 37 16 37
5 0 10 -5 10 -11z m28 -20 c-3 -8 -7 -3 -11 10 -4 17 -3 21 5 13 5 -5 8 -16 6
-23z m42 11 c0 -11 -2 -20 -4 -20 -2 0 -6 9 -9 20 -3 11 -1 20 4 20 5 0 9 -9
9 -20z m85 10 c3 -6 -1 -7 -9 -4 -9 3 -16 2 -16 -4 0 -6 6 -13 13 -15 9 -4 9
-6 0 -6 -15 -1 -26 16 -18 29 8 13 22 13 30 0z m103 -13 c2 -12 -3 -17 -17
-17 -12 0 -21 6 -21 13 0 31 32 34 38 4z m41 -5 c-1 -15 -2 -15 -6 1 -2 9 -9
14 -15 11 -7 -4 -8 -2 -4 5 10 15 26 4 25 -17z m48 2 c2 -16 1 -16 -3 -1 -3 9
-9 15 -14 12 -5 -3 -11 -1 -14 4 -4 5 2 8 11 7 10 -2 19 -11 20 -22z m40 -6
c-3 -7 -5 -2 -5 12 0 14 2 19 5 13 2 -7 2 -19 0 -25z m48 11 c0 -7 -8 -15 -17
-17 -18 -3 -25 18 -11 32 10 10 28 1 28 -15z m85 11 c-8 -5 -11 -12 -7 -16 3
-4 13 -2 21 5 11 9 15 9 18 -1 4 -10 9 -8 22 5 10 9 23 17 29 16 9 0 8 -2 0
-6 -7 -2 -13 -11 -13 -18 0 -9 -14 -13 -45 -13 -27 1 -45 6 -45 13 0 15 10 25
24 25 6 0 4 -4 -4 -10z m176 -2 c4 -7 3 -8 -4 -4 -7 4 -12 3 -12 -3 0 -5 6
-12 13 -14 7 -3 5 -6 -5 -6 -18 -1 -24 19 -11 32 9 9 11 9 19 -5z m27 -8 c-3
-12 -8 -19 -11 -16 -5 6 5 36 12 36 2 0 2 -9 -1 -20z m47 9 c0 -5 -4 -7 -10
-4 -5 3 -10 2 -10 -4 0 -5 6 -12 13 -14 7 -3 5 -6 -5 -6 -18 -1 -24 19 -11 32
10 10 23 8 23 -4z m-863 -21 c-3 -8 -6 -5 -6 6 -1 11 2 17 5 13 3 -3 4 -12 1
-19z m583 14 c0 -5 -7 -17 -15 -28 -14 -18 -14 -17 -4 9 12 27 19 34 19 19z"/>
<path d="M1000 951 c0 -5 -3 -18 -7 -28 -6 -16 -5 -16 10 -4 19 15 23 41 7 41
-5 0 -10 -4 -10 -9z"/>
<path d="M1145 949 c-4 -6 -5 -13 -2 -16 7 -7 27 6 27 18 0 12 -17 12 -25 -2z"/>
<path d="M1126 884 c-4 -9 -4 -19 -2 -21 8 -8 26 8 26 23 0 19 -16 18 -24 -2z"/>
<path d="M1300 721 c0 -6 4 -13 10 -16 6 -3 7 1 4 9 -7 18 -14 21 -14 7z"/>
<path d="M817 713 c-4 -3 -7 -11 -7 -17 0 -6 5 -5 12 2 6 6 9 14 7 17 -3 3 -9
2 -12 -2z"/>
<path d="M1157 703 c-4 -3 -7 -16 -6 -27 0 -19 1 -19 10 3 10 24 8 36 -4 24z"/>
<path d="M910 530 c0 -5 5 -10 10 -10 6 0 10 5 10 10 0 6 -4 10 -10 10 -5 0
-10 -4 -10 -10z"/>
<path d="M1090 530 c0 -5 5 -10 10 -10 6 0 10 5 10 10 0 6 -4 10 -10 10 -5 0
-10 -4 -10 -10z"/>
</g>
</svg>
